<svg width="1820" height="1821" xmlns="http://www.w3.org/2000/svg" xmlns:xlink="http://www.w3.org/1999/xlink" xml:space="preserve" overflow="hidden"><g transform="translate(-302 -328)"><path d="M555 1063.62C555 1012.47 596.469 971 647.624 971L1776.38 971C1827.53 971 1869 1012.47 1869 1063.62L1869 1868.38C1869 1919.53 1827.53 1961 1776.38 1961L647.624 1961C596.469 1961 555 1919.53 555 1868.38Z" stroke="#FFFFFF" stroke-width="27.5" stroke-miterlimit="8" fill="#0F1110" fill-rule="evenodd"/><path d="M1214.01 445C1380.83 445 1520.01 563.26 1552.2 720.471L1554.21 740.401 1582.97 737.503C1690.13 737.503 1777 824.324 1777 931.423 1777 1038.52 1690.13 1125.34 1582.97 1125.34 1529.39 1125.34 1480.88 1103.64 1445.77 1068.55L1433.77 1054.01 1407.02 1076.08C1351.92 1113.28 1285.51 1135 1214.01 1135 1142.52 1135 1076.1 1113.28 1021.01 1076.08L991.857 1052.04 978.231 1068.55C943.118 1103.64 894.61 1125.34 841.03 1125.34 733.87 1125.34 647 1038.52 647 931.423 647 824.324 733.87 737.503 841.03 737.503L873.779 740.802 875.83 720.471C908.018 563.26 1047.2 445 1214.01 445Z" stroke="#FFFFFF" stroke-width="27.5" stroke-miterlimit="8" fill="#E0211F" fill-rule="evenodd"/><path d="M568 1071.94C568 1021.72 608.715 981 658.94 981L1765.06 981C1815.28 981 1856 1021.72 1856 1071.94L1856 1862.06C1856 1912.28 1815.28 1953 1765.06 1953L658.94 1953C608.715 1953 568 1912.28 568 1862.06Z" fill="#101010" fill-rule="evenodd"/><path d="M658.877 981 1765.12 981C1815.31 981 1856 1021.62 1856 1071.74L1856 1180 568 1180 568 1071.74C568 1021.62 608.687 981 658.877 981Z" fill="#262625" fill-rule="evenodd"/><path d="M719 1083.5C719 1100.9 705.121 1115 688 1115 670.879 1115 657 1100.9 657 1083.5 657 1066.1 670.879 1052 688 1052 705.121 1052 719 1066.1 719 1083.5Z" fill="#CCCCCC" fill-rule="evenodd"/><path d="M824 1083.5C824 1100.9 809.897 1115 792.5 1115 775.103 1115 761 1100.9 761 1083.5 761 1066.1 775.103 1052 792.5 1052 809.897 1052 824 1066.1 824 1083.5Z" fill="#CCCCCC" fill-rule="evenodd"/><path d="M929 1083.5C929 1100.9 914.897 1115 897.5 1115 880.103 1115 866 1100.9 866 1083.5 866 1066.1 880.103 1052 897.5 1052 914.897 1052 929 1066.1 929 1083.5Z" fill="#CCCCCC" fill-rule="evenodd"/><path d="M711 1297 814 1402.5 711 1508" stroke="#FFFFFF" stroke-width="50.4167" stroke-linecap="round" stroke-linejoin="round" stroke-miterlimit="10" fill="none" fill-rule="evenodd"/><path d="M890 1496 1020 1496" stroke="#FFFFFF" stroke-width="50.4167" stroke-linecap="round" stroke-miterlimit="8" fill="none" fill-rule="evenodd"/><path d="M1037.1 648 1069.21 648C1074.95 648 1080.7 650.383 1084.86 654.553L1208.14 778.058C1210.32 780.242 1213.68 780.242 1215.86 778.058L1339.14 654.553C1343.3 650.383 1348.85 648 1354.8 648L1386.9 648C1393.05 648 1398 652.964 1398 659.119L1398 912.881C1398 919.036 1393.05 924 1386.9 924L1340.13 924C1333.99 924 1329.03 919.036 1329.03 912.881L1329.03 768.527C1329.03 767.335 1327.64 766.74 1326.65 767.534L1227.56 866.814C1219.04 875.352 1204.96 875.352 1196.44 866.814L1097.35 767.534C1096.56 766.74 1094.97 767.335 1094.97 768.527L1094.97 912.881C1094.97 919.036 1090.01 924 1083.87 924L1037.1 924C1030.95 924 1026 919.036 1026 912.881L1026 659.119C1026 652.964 1030.95 648 1037.1 648Z" fill="#FFFFFF" fill-rule="evenodd"/></g></svg>